<mxfile host="app.diagrams.net" modified="2021-09-07T01:29:31.515Z" agent="5.0 (Windows NT 10.0; Win64; x64) AppleWebKit/537.36 (KHTML, like Gecko) Chrome/93.0.4577.63 Safari/537.36" etag="cBwQ8uzXDs-Xotmr4_wL" version="15.0.6" type="github">
  <diagram id="R2lEEEUBdFMjLlhIrx00" name="Page-1">
    <mxGraphModel dx="2926" dy="1094" grid="1" gridSize="10" guides="1" tooltips="1" connect="1" arrows="1" fold="1" page="1" pageScale="1" pageWidth="850" pageHeight="1100" math="0" shadow="0" extFonts="Permanent Marker^https://fonts.googleapis.com/css?family=Permanent+Marker">
      <root>
        <mxCell id="0" />
        <mxCell id="1" parent="0" />
        <mxCell id="lLafAOqv10n0gAe4L1Dy-1" style="edgeStyle=none;orthogonalLoop=1;jettySize=auto;html=1;exitX=0.5;exitY=0;exitDx=0;exitDy=0;entryX=0.5;entryY=1;entryDx=0;entryDy=0;endArrow=none;" edge="1" parent="1" source="lLafAOqv10n0gAe4L1Dy-8" target="lLafAOqv10n0gAe4L1Dy-105">
          <mxGeometry relative="1" as="geometry" />
        </mxCell>
        <mxCell id="lLafAOqv10n0gAe4L1Dy-2" style="edgeStyle=none;orthogonalLoop=1;jettySize=auto;html=1;exitX=0.5;exitY=0;exitDx=0;exitDy=0;entryX=0.5;entryY=1;entryDx=0;entryDy=0;endArrow=none;" edge="1" parent="1" source="lLafAOqv10n0gAe4L1Dy-8" target="lLafAOqv10n0gAe4L1Dy-106">
          <mxGeometry relative="1" as="geometry" />
        </mxCell>
        <mxCell id="lLafAOqv10n0gAe4L1Dy-3" style="edgeStyle=none;orthogonalLoop=1;jettySize=auto;html=1;exitX=0.5;exitY=0;exitDx=0;exitDy=0;entryX=1;entryY=0.5;entryDx=0;entryDy=0;endArrow=none;" edge="1" parent="1" source="lLafAOqv10n0gAe4L1Dy-8" target="lLafAOqv10n0gAe4L1Dy-41">
          <mxGeometry relative="1" as="geometry" />
        </mxCell>
        <mxCell id="lLafAOqv10n0gAe4L1Dy-4" style="edgeStyle=none;orthogonalLoop=1;jettySize=auto;html=1;exitX=0.5;exitY=0;exitDx=0;exitDy=0;entryX=1;entryY=0.5;entryDx=0;entryDy=0;endArrow=none;" edge="1" parent="1" source="lLafAOqv10n0gAe4L1Dy-8" target="lLafAOqv10n0gAe4L1Dy-40">
          <mxGeometry relative="1" as="geometry" />
        </mxCell>
        <mxCell id="lLafAOqv10n0gAe4L1Dy-5" style="edgeStyle=none;orthogonalLoop=1;jettySize=auto;html=1;exitX=0.5;exitY=0;exitDx=0;exitDy=0;entryX=0.5;entryY=1;entryDx=0;entryDy=0;endArrow=none;" edge="1" parent="1" source="lLafAOqv10n0gAe4L1Dy-8" target="lLafAOqv10n0gAe4L1Dy-107">
          <mxGeometry relative="1" as="geometry" />
        </mxCell>
        <mxCell id="lLafAOqv10n0gAe4L1Dy-6" style="edgeStyle=none;orthogonalLoop=1;jettySize=auto;html=1;exitX=0.5;exitY=0;exitDx=0;exitDy=0;entryX=1;entryY=0.5;entryDx=0;entryDy=0;endArrow=none;" edge="1" parent="1" source="lLafAOqv10n0gAe4L1Dy-8" target="lLafAOqv10n0gAe4L1Dy-16">
          <mxGeometry relative="1" as="geometry" />
        </mxCell>
        <mxCell id="lLafAOqv10n0gAe4L1Dy-7" style="edgeStyle=none;orthogonalLoop=1;jettySize=auto;html=1;exitX=0.5;exitY=0;exitDx=0;exitDy=0;entryX=0.5;entryY=1;entryDx=0;entryDy=0;endArrow=none;" edge="1" parent="1" source="lLafAOqv10n0gAe4L1Dy-8" target="lLafAOqv10n0gAe4L1Dy-104">
          <mxGeometry relative="1" as="geometry" />
        </mxCell>
        <mxCell id="lLafAOqv10n0gAe4L1Dy-8" value="CUSTOMER" style="rounded=0;whiteSpace=wrap;html=1;" vertex="1" parent="1">
          <mxGeometry x="-50" y="154.25" width="120" height="60" as="geometry" />
        </mxCell>
        <mxCell id="lLafAOqv10n0gAe4L1Dy-9" style="edgeStyle=none;orthogonalLoop=1;jettySize=auto;html=1;exitX=0;exitY=0.5;exitDx=0;exitDy=0;entryX=1;entryY=0.5;entryDx=0;entryDy=0;endArrow=none;" edge="1" parent="1" source="lLafAOqv10n0gAe4L1Dy-10" target="lLafAOqv10n0gAe4L1Dy-15">
          <mxGeometry relative="1" as="geometry" />
        </mxCell>
        <mxCell id="lLafAOqv10n0gAe4L1Dy-10" value="HAS" style="rhombus;whiteSpace=wrap;html=1;" vertex="1" parent="1">
          <mxGeometry x="-205" y="155.25" width="60" height="61" as="geometry" />
        </mxCell>
        <mxCell id="lLafAOqv10n0gAe4L1Dy-11" style="edgeStyle=none;orthogonalLoop=1;jettySize=auto;html=1;exitX=0.5;exitY=0;exitDx=0;exitDy=0;entryX=0.5;entryY=1;entryDx=0;entryDy=0;endArrow=none;" edge="1" parent="1" source="lLafAOqv10n0gAe4L1Dy-15" target="lLafAOqv10n0gAe4L1Dy-43">
          <mxGeometry relative="1" as="geometry" />
        </mxCell>
        <mxCell id="lLafAOqv10n0gAe4L1Dy-12" style="edgeStyle=none;orthogonalLoop=1;jettySize=auto;html=1;exitX=0.5;exitY=0;exitDx=0;exitDy=0;entryX=0.5;entryY=1;entryDx=0;entryDy=0;endArrow=none;" edge="1" parent="1" source="lLafAOqv10n0gAe4L1Dy-15" target="lLafAOqv10n0gAe4L1Dy-42">
          <mxGeometry relative="1" as="geometry" />
        </mxCell>
        <mxCell id="lLafAOqv10n0gAe4L1Dy-13" style="edgeStyle=none;orthogonalLoop=1;jettySize=auto;html=1;exitX=0.5;exitY=0;exitDx=0;exitDy=0;entryX=0.5;entryY=1;entryDx=0;entryDy=0;endArrow=none;" edge="1" parent="1" source="lLafAOqv10n0gAe4L1Dy-15" target="lLafAOqv10n0gAe4L1Dy-186">
          <mxGeometry relative="1" as="geometry" />
        </mxCell>
        <mxCell id="lLafAOqv10n0gAe4L1Dy-14" style="edgeStyle=none;orthogonalLoop=1;jettySize=auto;html=1;exitX=0;exitY=0.5;exitDx=0;exitDy=0;entryX=1;entryY=0.5;entryDx=0;entryDy=0;endArrow=none;" edge="1" parent="1" source="lLafAOqv10n0gAe4L1Dy-15" target="lLafAOqv10n0gAe4L1Dy-197">
          <mxGeometry relative="1" as="geometry" />
        </mxCell>
        <mxCell id="lLafAOqv10n0gAe4L1Dy-15" value="CREDIT_CARD" style="rounded=0;whiteSpace=wrap;html=1;" vertex="1" parent="1">
          <mxGeometry x="-442.75" y="156.25" width="120" height="60" as="geometry" />
        </mxCell>
        <mxCell id="lLafAOqv10n0gAe4L1Dy-16" value="&lt;u&gt;Id&lt;/u&gt;" style="ellipse;whiteSpace=wrap;html=1;" vertex="1" parent="1">
          <mxGeometry x="-175" y="84.25" width="50" height="20" as="geometry" />
        </mxCell>
        <mxCell id="lLafAOqv10n0gAe4L1Dy-17" style="edgeStyle=none;orthogonalLoop=1;jettySize=auto;html=1;exitX=1;exitY=0.5;exitDx=0;exitDy=0;entryX=0;entryY=0.5;entryDx=0;entryDy=0;endArrow=none;" edge="1" parent="1" source="lLafAOqv10n0gAe4L1Dy-20" target="lLafAOqv10n0gAe4L1Dy-116">
          <mxGeometry relative="1" as="geometry" />
        </mxCell>
        <mxCell id="lLafAOqv10n0gAe4L1Dy-18" style="edgeStyle=none;rounded=0;orthogonalLoop=1;jettySize=auto;html=1;exitX=0.5;exitY=1;exitDx=0;exitDy=0;entryX=0.5;entryY=0;entryDx=0;entryDy=0;endArrow=none;" edge="1" parent="1" source="lLafAOqv10n0gAe4L1Dy-20" target="lLafAOqv10n0gAe4L1Dy-28">
          <mxGeometry relative="1" as="geometry" />
        </mxCell>
        <mxCell id="lLafAOqv10n0gAe4L1Dy-19" style="edgeStyle=none;orthogonalLoop=1;jettySize=auto;html=1;exitX=1;exitY=0.5;exitDx=0;exitDy=0;entryX=0;entryY=0;entryDx=0;entryDy=0;endArrow=none;" edge="1" parent="1" source="lLafAOqv10n0gAe4L1Dy-20" target="lLafAOqv10n0gAe4L1Dy-203">
          <mxGeometry relative="1" as="geometry" />
        </mxCell>
        <mxCell id="lLafAOqv10n0gAe4L1Dy-20" value="PRODUCT" style="rounded=0;whiteSpace=wrap;html=1;" vertex="1" parent="1">
          <mxGeometry x="840" y="460.92" width="120" height="60" as="geometry" />
        </mxCell>
        <mxCell id="lLafAOqv10n0gAe4L1Dy-21" style="edgeStyle=none;rounded=0;orthogonalLoop=1;jettySize=auto;html=1;exitX=0;exitY=0.5;exitDx=0;exitDy=0;entryX=0.5;entryY=0;entryDx=0;entryDy=0;endArrow=none;" edge="1" parent="1" source="lLafAOqv10n0gAe4L1Dy-24" target="lLafAOqv10n0gAe4L1Dy-38">
          <mxGeometry relative="1" as="geometry">
            <Array as="points">
              <mxPoint x="766" y="288" />
            </Array>
          </mxGeometry>
        </mxCell>
        <mxCell id="lLafAOqv10n0gAe4L1Dy-22" style="edgeStyle=none;rounded=0;orthogonalLoop=1;jettySize=auto;html=1;exitX=0.5;exitY=0;exitDx=0;exitDy=0;entryX=0.5;entryY=1;entryDx=0;entryDy=0;endArrow=none;" edge="1" parent="1" source="lLafAOqv10n0gAe4L1Dy-24" target="lLafAOqv10n0gAe4L1Dy-44">
          <mxGeometry relative="1" as="geometry" />
        </mxCell>
        <mxCell id="lLafAOqv10n0gAe4L1Dy-23" style="edgeStyle=none;rounded=0;orthogonalLoop=1;jettySize=auto;html=1;exitX=0.5;exitY=0;exitDx=0;exitDy=0;entryX=0.5;entryY=1;entryDx=0;entryDy=0;endArrow=none;" edge="1" parent="1" source="lLafAOqv10n0gAe4L1Dy-24" target="lLafAOqv10n0gAe4L1Dy-115">
          <mxGeometry relative="1" as="geometry" />
        </mxCell>
        <mxCell id="lLafAOqv10n0gAe4L1Dy-24" value="SHOP" style="rounded=0;whiteSpace=wrap;html=1;" vertex="1" parent="1">
          <mxGeometry x="840" y="257.75" width="120" height="60" as="geometry" />
        </mxCell>
        <mxCell id="lLafAOqv10n0gAe4L1Dy-25" value="SELLS" style="rhombus;whiteSpace=wrap;html=1;" vertex="1" parent="1">
          <mxGeometry x="860" y="357.75" width="80" height="80" as="geometry" />
        </mxCell>
        <mxCell id="lLafAOqv10n0gAe4L1Dy-26" value="" style="endArrow=none;html=1;entryX=0.5;entryY=1;entryDx=0;entryDy=0;exitX=0.5;exitY=0;exitDx=0;exitDy=0;" edge="1" parent="1" source="lLafAOqv10n0gAe4L1Dy-25" target="lLafAOqv10n0gAe4L1Dy-24">
          <mxGeometry width="50" height="50" relative="1" as="geometry">
            <mxPoint x="880" y="347.75" as="sourcePoint" />
            <mxPoint x="930" y="297.75" as="targetPoint" />
          </mxGeometry>
        </mxCell>
        <mxCell id="lLafAOqv10n0gAe4L1Dy-27" value="" style="endArrow=none;html=1;entryX=0.5;entryY=1;entryDx=0;entryDy=0;exitX=0.5;exitY=0;exitDx=0;exitDy=0;" edge="1" parent="1" source="lLafAOqv10n0gAe4L1Dy-20" target="lLafAOqv10n0gAe4L1Dy-25">
          <mxGeometry width="50" height="50" relative="1" as="geometry">
            <mxPoint x="890" y="467.75" as="sourcePoint" />
            <mxPoint x="940" y="417.75" as="targetPoint" />
          </mxGeometry>
        </mxCell>
        <mxCell id="lLafAOqv10n0gAe4L1Dy-28" value="&lt;font&gt;BELONGS_TO&lt;/font&gt;" style="rhombus;whiteSpace=wrap;html=1;" vertex="1" parent="1">
          <mxGeometry x="845" y="603.38" width="110" height="76.62" as="geometry" />
        </mxCell>
        <mxCell id="lLafAOqv10n0gAe4L1Dy-29" style="edgeStyle=none;rounded=0;orthogonalLoop=1;jettySize=auto;html=1;exitX=1;exitY=0.5;exitDx=0;exitDy=0;entryX=0;entryY=0.5;entryDx=0;entryDy=0;endArrow=none;" edge="1" parent="1" source="lLafAOqv10n0gAe4L1Dy-31" target="lLafAOqv10n0gAe4L1Dy-55">
          <mxGeometry relative="1" as="geometry" />
        </mxCell>
        <mxCell id="lLafAOqv10n0gAe4L1Dy-30" style="edgeStyle=none;rounded=0;orthogonalLoop=1;jettySize=auto;html=1;exitX=1;exitY=0.5;exitDx=0;exitDy=0;entryX=0;entryY=0.5;entryDx=0;entryDy=0;endArrow=none;" edge="1" parent="1" source="lLafAOqv10n0gAe4L1Dy-31" target="lLafAOqv10n0gAe4L1Dy-56">
          <mxGeometry relative="1" as="geometry" />
        </mxCell>
        <mxCell id="lLafAOqv10n0gAe4L1Dy-31" value="PRODUCT_TYPE" style="rounded=0;whiteSpace=wrap;html=1;" vertex="1" parent="1">
          <mxGeometry x="840" y="733.38" width="120" height="60" as="geometry" />
        </mxCell>
        <mxCell id="lLafAOqv10n0gAe4L1Dy-32" style="edgeStyle=none;rounded=0;orthogonalLoop=1;jettySize=auto;html=1;exitX=0;exitY=0.5;exitDx=0;exitDy=0;entryX=0;entryY=0.75;entryDx=0;entryDy=0;endArrow=none;" edge="1" parent="1" source="lLafAOqv10n0gAe4L1Dy-34" target="lLafAOqv10n0gAe4L1Dy-31">
          <mxGeometry relative="1" as="geometry">
            <Array as="points">
              <mxPoint x="806" y="879.63" />
              <mxPoint x="806" y="778.63" />
            </Array>
          </mxGeometry>
        </mxCell>
        <mxCell id="lLafAOqv10n0gAe4L1Dy-204" style="edgeStyle=orthogonalEdgeStyle;rounded=0;orthogonalLoop=1;jettySize=auto;html=1;exitX=1;exitY=0.5;exitDx=0;exitDy=0;entryX=0.997;entryY=0.583;entryDx=0;entryDy=0;entryPerimeter=0;" edge="1" parent="1" source="lLafAOqv10n0gAe4L1Dy-34" target="lLafAOqv10n0gAe4L1Dy-31">
          <mxGeometry relative="1" as="geometry">
            <mxPoint x="1000" y="770" as="targetPoint" />
            <Array as="points">
              <mxPoint x="990" y="879" />
              <mxPoint x="990" y="768" />
            </Array>
          </mxGeometry>
        </mxCell>
        <mxCell id="lLafAOqv10n0gAe4L1Dy-34" value="&lt;font&gt;HIERARCHY&lt;/font&gt;" style="rhombus;whiteSpace=wrap;html=1;" vertex="1" parent="1">
          <mxGeometry x="856" y="834.38" width="90" height="90" as="geometry" />
        </mxCell>
        <mxCell id="lLafAOqv10n0gAe4L1Dy-35" value="Child" style="text;html=1;align=center;verticalAlign=middle;resizable=0;points=[];autosize=1;strokeColor=none;fillColor=none;" vertex="1" parent="1">
          <mxGeometry x="756" y="813.38" width="40" height="20" as="geometry" />
        </mxCell>
        <mxCell id="lLafAOqv10n0gAe4L1Dy-36" value="Parent&lt;br&gt;" style="text;html=1;align=center;verticalAlign=middle;resizable=0;points=[];autosize=1;strokeColor=none;fillColor=none;" vertex="1" parent="1">
          <mxGeometry x="992" y="813.38" width="50" height="20" as="geometry" />
        </mxCell>
        <mxCell id="lLafAOqv10n0gAe4L1Dy-37" style="edgeStyle=none;rounded=0;orthogonalLoop=1;jettySize=auto;html=1;exitX=0.5;exitY=1;exitDx=0;exitDy=0;entryX=0;entryY=0.5;entryDx=0;entryDy=0;endArrow=none;" edge="1" parent="1" source="lLafAOqv10n0gAe4L1Dy-38" target="lLafAOqv10n0gAe4L1Dy-31">
          <mxGeometry relative="1" as="geometry">
            <Array as="points">
              <mxPoint x="766" y="763.63" />
            </Array>
          </mxGeometry>
        </mxCell>
        <mxCell id="lLafAOqv10n0gAe4L1Dy-38" value="RESTRICTED_TO" style="rhombus;whiteSpace=wrap;html=1;" vertex="1" parent="1">
          <mxGeometry x="706" y="595.07" width="120" height="96.62" as="geometry" />
        </mxCell>
        <mxCell id="lLafAOqv10n0gAe4L1Dy-39" value="&amp;gt;=1&lt;br&gt;" style="text;html=1;align=center;verticalAlign=middle;resizable=0;points=[];autosize=1;strokeColor=none;fillColor=none;" vertex="1" parent="1">
          <mxGeometry x="-122.5" y="164.25" width="40" height="20" as="geometry" />
        </mxCell>
        <mxCell id="lLafAOqv10n0gAe4L1Dy-40" value="Username" style="ellipse;whiteSpace=wrap;html=1;" vertex="1" parent="1">
          <mxGeometry x="-172.5" y="37.75" width="70" height="30" as="geometry" />
        </mxCell>
        <mxCell id="lLafAOqv10n0gAe4L1Dy-41" value="Email" style="ellipse;whiteSpace=wrap;html=1;" vertex="1" parent="1">
          <mxGeometry x="-75" y="50" width="60" height="20" as="geometry" />
        </mxCell>
        <mxCell id="lLafAOqv10n0gAe4L1Dy-42" value="&lt;u&gt;Card_num&lt;/u&gt;" style="ellipse;whiteSpace=wrap;html=1;" vertex="1" parent="1">
          <mxGeometry x="-600" y="89.25" width="70" height="40" as="geometry" />
        </mxCell>
        <mxCell id="lLafAOqv10n0gAe4L1Dy-43" value="Name" style="ellipse;whiteSpace=wrap;html=1;" vertex="1" parent="1">
          <mxGeometry x="-515" y="89.25" width="60" height="30" as="geometry" />
        </mxCell>
        <mxCell id="lLafAOqv10n0gAe4L1Dy-44" value="&lt;u&gt;Id&lt;/u&gt;" style="ellipse;whiteSpace=wrap;html=1;rounded=0;" vertex="1" parent="1">
          <mxGeometry x="840" y="184.25" width="40" height="27.75" as="geometry" />
        </mxCell>
        <mxCell id="lLafAOqv10n0gAe4L1Dy-45" value="Name" style="ellipse;whiteSpace=wrap;html=1;" vertex="1" parent="1">
          <mxGeometry x="1103.25" y="365.75" width="54.5" height="30.75" as="geometry" />
        </mxCell>
        <mxCell id="lLafAOqv10n0gAe4L1Dy-46" value="Color" style="ellipse;whiteSpace=wrap;html=1;" vertex="1" parent="1">
          <mxGeometry x="1164.5" y="439.12" width="40" height="27.75" as="geometry" />
        </mxCell>
        <mxCell id="lLafAOqv10n0gAe4L1Dy-47" value="Description" style="ellipse;whiteSpace=wrap;html=1;" vertex="1" parent="1">
          <mxGeometry x="1159.5" y="537.75" width="70" height="40" as="geometry" />
        </mxCell>
        <mxCell id="lLafAOqv10n0gAe4L1Dy-48" value="Size" style="ellipse;whiteSpace=wrap;html=1;" vertex="1" parent="1">
          <mxGeometry x="1140.5" y="472.62" width="40" height="27.75" as="geometry" />
        </mxCell>
        <mxCell id="lLafAOqv10n0gAe4L1Dy-49" value="&lt;u&gt;Id&lt;/u&gt;" style="ellipse;whiteSpace=wrap;html=1;" vertex="1" parent="1">
          <mxGeometry x="1130" y="410" width="40.5" height="27.75" as="geometry" />
        </mxCell>
        <mxCell id="lLafAOqv10n0gAe4L1Dy-50" value="" style="endArrow=none;html=1;entryX=0;entryY=0.5;entryDx=0;entryDy=0;exitX=1;exitY=0.5;exitDx=0;exitDy=0;" edge="1" parent="1" source="lLafAOqv10n0gAe4L1Dy-20" target="lLafAOqv10n0gAe4L1Dy-45">
          <mxGeometry width="50" height="50" relative="1" as="geometry">
            <mxPoint x="920" y="487.75" as="sourcePoint" />
            <mxPoint x="970" y="437.75" as="targetPoint" />
          </mxGeometry>
        </mxCell>
        <mxCell id="lLafAOqv10n0gAe4L1Dy-51" value="" style="endArrow=none;html=1;exitX=1;exitY=0.5;exitDx=0;exitDy=0;entryX=0;entryY=0.5;entryDx=0;entryDy=0;" edge="1" parent="1" source="lLafAOqv10n0gAe4L1Dy-20" target="lLafAOqv10n0gAe4L1Dy-49">
          <mxGeometry width="50" height="50" relative="1" as="geometry">
            <mxPoint x="1020" y="507.75" as="sourcePoint" />
            <mxPoint x="1070" y="457.75" as="targetPoint" />
          </mxGeometry>
        </mxCell>
        <mxCell id="lLafAOqv10n0gAe4L1Dy-52" value="" style="endArrow=none;html=1;entryX=0;entryY=0.5;entryDx=0;entryDy=0;exitX=1;exitY=0.5;exitDx=0;exitDy=0;" edge="1" parent="1" source="lLafAOqv10n0gAe4L1Dy-20" target="lLafAOqv10n0gAe4L1Dy-46">
          <mxGeometry width="50" height="50" relative="1" as="geometry">
            <mxPoint x="960" y="497.75" as="sourcePoint" />
            <mxPoint x="1110" y="407.75" as="targetPoint" />
          </mxGeometry>
        </mxCell>
        <mxCell id="lLafAOqv10n0gAe4L1Dy-53" value="" style="endArrow=none;html=1;entryX=0;entryY=1;entryDx=0;entryDy=0;exitX=1;exitY=0.5;exitDx=0;exitDy=0;" edge="1" parent="1" source="lLafAOqv10n0gAe4L1Dy-20" target="lLafAOqv10n0gAe4L1Dy-48">
          <mxGeometry width="50" height="50" relative="1" as="geometry">
            <mxPoint x="970" y="507.75" as="sourcePoint" />
            <mxPoint x="1070" y="472.75" as="targetPoint" />
          </mxGeometry>
        </mxCell>
        <mxCell id="lLafAOqv10n0gAe4L1Dy-54" value="" style="endArrow=none;html=1;exitX=1;exitY=0.5;exitDx=0;exitDy=0;" edge="1" parent="1" source="lLafAOqv10n0gAe4L1Dy-20" target="lLafAOqv10n0gAe4L1Dy-47">
          <mxGeometry width="50" height="50" relative="1" as="geometry">
            <mxPoint x="970" y="497.75" as="sourcePoint" />
            <mxPoint x="1137.322330470336" y="473.3566017177984" as="targetPoint" />
          </mxGeometry>
        </mxCell>
        <mxCell id="lLafAOqv10n0gAe4L1Dy-55" value="&lt;u&gt;Id&lt;/u&gt;" style="ellipse;whiteSpace=wrap;html=1;" vertex="1" parent="1">
          <mxGeometry x="1006" y="700" width="44" height="23.38" as="geometry" />
        </mxCell>
        <mxCell id="lLafAOqv10n0gAe4L1Dy-56" value="Description" style="ellipse;whiteSpace=wrap;html=1;" vertex="1" parent="1">
          <mxGeometry x="1020.5" y="732.13" width="80" height="40" as="geometry" />
        </mxCell>
        <mxCell id="lLafAOqv10n0gAe4L1Dy-57" value="Photos" style="ellipse;whiteSpace=wrap;html=1;" vertex="1" parent="1">
          <mxGeometry x="1090.5" y="550" width="50" height="30" as="geometry" />
        </mxCell>
        <mxCell id="lLafAOqv10n0gAe4L1Dy-58" value="" style="endArrow=none;html=1;exitX=1;exitY=0.5;exitDx=0;exitDy=0;entryX=0;entryY=0.5;entryDx=0;entryDy=0;" edge="1" parent="1" source="lLafAOqv10n0gAe4L1Dy-20" target="lLafAOqv10n0gAe4L1Dy-57">
          <mxGeometry width="50" height="50" relative="1" as="geometry">
            <mxPoint x="970" y="507.75" as="sourcePoint" />
            <mxPoint x="1120" y="507.75" as="targetPoint" />
          </mxGeometry>
        </mxCell>
        <mxCell id="lLafAOqv10n0gAe4L1Dy-59" style="edgeStyle=orthogonalEdgeStyle;rounded=0;orthogonalLoop=1;jettySize=auto;html=1;endArrow=none;endFill=0;" edge="1" parent="1" target="lLafAOqv10n0gAe4L1Dy-179">
          <mxGeometry relative="1" as="geometry">
            <mxPoint x="70" y="497" as="sourcePoint" />
          </mxGeometry>
        </mxCell>
        <mxCell id="lLafAOqv10n0gAe4L1Dy-60" style="edgeStyle=none;orthogonalLoop=1;jettySize=auto;html=1;exitX=0;exitY=0.5;exitDx=0;exitDy=0;entryX=1;entryY=0.5;entryDx=0;entryDy=0;endArrow=none;" edge="1" parent="1" source="lLafAOqv10n0gAe4L1Dy-62" target="lLafAOqv10n0gAe4L1Dy-194">
          <mxGeometry relative="1" as="geometry" />
        </mxCell>
        <mxCell id="lLafAOqv10n0gAe4L1Dy-61" style="edgeStyle=none;orthogonalLoop=1;jettySize=auto;html=1;exitX=0;exitY=0;exitDx=0;exitDy=0;entryX=0.5;entryY=1;entryDx=0;entryDy=0;endArrow=none;" edge="1" parent="1" source="lLafAOqv10n0gAe4L1Dy-62" target="lLafAOqv10n0gAe4L1Dy-199">
          <mxGeometry relative="1" as="geometry" />
        </mxCell>
        <mxCell id="lLafAOqv10n0gAe4L1Dy-62" value="ORDER" style="rounded=0;whiteSpace=wrap;html=1;" vertex="1" parent="1">
          <mxGeometry x="-50" y="470" width="120" height="60" as="geometry" />
        </mxCell>
        <mxCell id="lLafAOqv10n0gAe4L1Dy-63" value="PLACES" style="rhombus;whiteSpace=wrap;html=1;" vertex="1" parent="1">
          <mxGeometry x="-25" y="278" width="70" height="60" as="geometry" />
        </mxCell>
        <mxCell id="lLafAOqv10n0gAe4L1Dy-64" value="" style="endArrow=none;html=1;exitX=0.5;exitY=0;exitDx=0;exitDy=0;entryX=0.5;entryY=1;entryDx=0;entryDy=0;" edge="1" parent="1" source="lLafAOqv10n0gAe4L1Dy-62" target="lLafAOqv10n0gAe4L1Dy-63">
          <mxGeometry width="50" height="50" relative="1" as="geometry">
            <mxPoint x="-10" y="520" as="sourcePoint" />
            <mxPoint x="40" y="470" as="targetPoint" />
          </mxGeometry>
        </mxCell>
        <mxCell id="lLafAOqv10n0gAe4L1Dy-65" value="Status" style="ellipse;whiteSpace=wrap;html=1;" vertex="1" parent="1">
          <mxGeometry x="-185" y="505.25" width="55" height="20" as="geometry" />
        </mxCell>
        <mxCell id="lLafAOqv10n0gAe4L1Dy-66" value="" style="endArrow=none;html=1;entryX=1;entryY=0.5;entryDx=0;entryDy=0;exitX=0;exitY=0.5;exitDx=0;exitDy=0;" edge="1" parent="1" source="lLafAOqv10n0gAe4L1Dy-62" target="lLafAOqv10n0gAe4L1Dy-65">
          <mxGeometry width="50" height="50" relative="1" as="geometry">
            <mxPoint x="-140" y="620" as="sourcePoint" />
            <mxPoint x="-90" y="570" as="targetPoint" />
          </mxGeometry>
        </mxCell>
        <mxCell id="lLafAOqv10n0gAe4L1Dy-67" value="&lt;u&gt;Sequence_num&lt;/u&gt;" style="ellipse;whiteSpace=wrap;html=1;" vertex="1" parent="1">
          <mxGeometry x="400" y="340.5" width="100" height="31" as="geometry" />
        </mxCell>
        <mxCell id="lLafAOqv10n0gAe4L1Dy-68" style="edgeStyle=orthogonalEdgeStyle;rounded=0;orthogonalLoop=1;jettySize=auto;html=1;exitX=1;exitY=0.5;exitDx=0;exitDy=0;endArrow=none;endFill=0;" edge="1" parent="1" target="lLafAOqv10n0gAe4L1Dy-71">
          <mxGeometry relative="1" as="geometry">
            <mxPoint x="390" y="491.5" as="sourcePoint" />
          </mxGeometry>
        </mxCell>
        <mxCell id="lLafAOqv10n0gAe4L1Dy-69" value="Order_price" style="ellipse;whiteSpace=wrap;html=1;fillColor=#FFFFFF;" vertex="1" parent="1">
          <mxGeometry x="530" y="415" width="80" height="28.38" as="geometry" />
        </mxCell>
        <mxCell id="lLafAOqv10n0gAe4L1Dy-70" style="edgeStyle=none;rounded=0;orthogonalLoop=1;jettySize=auto;html=1;exitX=1;exitY=0.5;exitDx=0;exitDy=0;entryX=0;entryY=0.5;entryDx=0;entryDy=0;endArrow=none;" edge="1" parent="1" source="lLafAOqv10n0gAe4L1Dy-71" target="lLafAOqv10n0gAe4L1Dy-20">
          <mxGeometry relative="1" as="geometry" />
        </mxCell>
        <mxCell id="lLafAOqv10n0gAe4L1Dy-71" value="Is-a" style="triangle;whiteSpace=wrap;html=1;strokeColor=#000000;fillColor=#FFFFFF;" vertex="1" parent="1">
          <mxGeometry x="640" y="450.92" width="55" height="80" as="geometry" />
        </mxCell>
        <mxCell id="lLafAOqv10n0gAe4L1Dy-72" value="ISSUES" style="rhombus;whiteSpace=wrap;html=1;rounded=0;" vertex="1" parent="1">
          <mxGeometry x="-30" y="603.38" width="80" height="80" as="geometry" />
        </mxCell>
        <mxCell id="lLafAOqv10n0gAe4L1Dy-73" style="edgeStyle=none;orthogonalLoop=1;jettySize=auto;html=1;exitX=0.5;exitY=1;exitDx=0;exitDy=0;entryX=0.5;entryY=0;entryDx=0;entryDy=0;endArrow=none;" edge="1" parent="1" source="lLafAOqv10n0gAe4L1Dy-75" target="lLafAOqv10n0gAe4L1Dy-84">
          <mxGeometry relative="1" as="geometry" />
        </mxCell>
        <mxCell id="lLafAOqv10n0gAe4L1Dy-74" style="edgeStyle=none;rounded=0;orthogonalLoop=1;jettySize=auto;html=1;exitX=0.5;exitY=1;exitDx=0;exitDy=0;entryX=0.5;entryY=0;entryDx=0;entryDy=0;endArrow=none;" edge="1" parent="1" source="lLafAOqv10n0gAe4L1Dy-75" target="lLafAOqv10n0gAe4L1Dy-83">
          <mxGeometry relative="1" as="geometry" />
        </mxCell>
        <mxCell id="lLafAOqv10n0gAe4L1Dy-75" value="INVOICE" style="whiteSpace=wrap;html=1;rounded=0;" vertex="1" parent="1">
          <mxGeometry x="-217.5" y="757.85" width="120" height="60" as="geometry" />
        </mxCell>
        <mxCell id="lLafAOqv10n0gAe4L1Dy-76" style="edgeStyle=none;rounded=0;orthogonalLoop=1;jettySize=auto;html=1;exitX=0.5;exitY=0;exitDx=0;exitDy=0;entryX=0.5;entryY=1;entryDx=0;entryDy=0;endArrow=none;" edge="1" parent="1" source="lLafAOqv10n0gAe4L1Dy-77" target="lLafAOqv10n0gAe4L1Dy-75">
          <mxGeometry relative="1" as="geometry" />
        </mxCell>
        <mxCell id="lLafAOqv10n0gAe4L1Dy-77" value="&lt;u&gt;Number&lt;/u&gt;" style="ellipse;whiteSpace=wrap;html=1;rounded=0;" vertex="1" parent="1">
          <mxGeometry x="-267.25" y="858.25" width="62.25" height="35.25" as="geometry" />
        </mxCell>
        <mxCell id="lLafAOqv10n0gAe4L1Dy-78" value="" style="rounded=0;orthogonalLoop=1;jettySize=auto;html=1;endArrow=none;endFill=0;exitX=1;exitY=0.5;exitDx=0;exitDy=0;" edge="1" parent="1" source="lLafAOqv10n0gAe4L1Dy-82" target="lLafAOqv10n0gAe4L1Dy-85">
          <mxGeometry relative="1" as="geometry" />
        </mxCell>
        <mxCell id="lLafAOqv10n0gAe4L1Dy-79" style="rounded=0;orthogonalLoop=1;jettySize=auto;html=1;exitX=1;exitY=0.5;exitDx=0;exitDy=0;entryX=0;entryY=0;entryDx=0;entryDy=0;endArrow=none;endFill=0;" edge="1" parent="1" source="lLafAOqv10n0gAe4L1Dy-82" target="lLafAOqv10n0gAe4L1Dy-95">
          <mxGeometry relative="1" as="geometry" />
        </mxCell>
        <mxCell id="lLafAOqv10n0gAe4L1Dy-81" style="edgeStyle=none;orthogonalLoop=1;jettySize=auto;html=1;exitX=0.5;exitY=1;exitDx=0;exitDy=0;entryX=0.5;entryY=0;entryDx=0;entryDy=0;endArrow=none;" edge="1" parent="1" source="lLafAOqv10n0gAe4L1Dy-82" target="lLafAOqv10n0gAe4L1Dy-198">
          <mxGeometry relative="1" as="geometry" />
        </mxCell>
        <mxCell id="lLafAOqv10n0gAe4L1Dy-83" value="Status" style="ellipse;whiteSpace=wrap;html=1;rounded=0;" vertex="1" parent="1">
          <mxGeometry x="-162.5" y="867.38" width="60" height="24" as="geometry" />
        </mxCell>
        <mxCell id="lLafAOqv10n0gAe4L1Dy-84" value="Date" style="ellipse;whiteSpace=wrap;html=1;rounded=0;" vertex="1" parent="1">
          <mxGeometry x="-203.75" y="893.5" width="57.5" height="25" as="geometry" />
        </mxCell>
        <mxCell id="lLafAOqv10n0gAe4L1Dy-85" value="&lt;u&gt;Id&lt;/u&gt;" style="ellipse;whiteSpace=wrap;html=1;rounded=0;fillColor=#FFFFFF;" vertex="1" parent="1">
          <mxGeometry x="-355" y="867.75" width="35" height="18.5" as="geometry" />
        </mxCell>
        <mxCell id="lLafAOqv10n0gAe4L1Dy-86" value="" style="edgeStyle=orthogonalEdgeStyle;rounded=0;orthogonalLoop=1;jettySize=auto;html=1;endArrow=none;endFill=0;" edge="1" parent="1" source="lLafAOqv10n0gAe4L1Dy-87" target="lLafAOqv10n0gAe4L1Dy-82">
          <mxGeometry relative="1" as="geometry" />
        </mxCell>
        <mxCell id="lLafAOqv10n0gAe4L1Dy-87" value="&lt;font&gt;MADE_FOR&lt;/font&gt;" style="rhombus;whiteSpace=wrap;html=1;rounded=0;" vertex="1" parent="1">
          <mxGeometry x="-362.75" y="752.5" width="100" height="80" as="geometry" />
        </mxCell>
        <mxCell id="lLafAOqv10n0gAe4L1Dy-89" style="edgeStyle=none;orthogonalLoop=1;jettySize=auto;html=1;exitX=1;exitY=0.5;exitDx=0;exitDy=0;entryX=0;entryY=0.5;entryDx=0;entryDy=0;endArrow=none;" edge="1" parent="1" source="lLafAOqv10n0gAe4L1Dy-92" target="lLafAOqv10n0gAe4L1Dy-93">
          <mxGeometry relative="1" as="geometry" />
        </mxCell>
        <mxCell id="lLafAOqv10n0gAe4L1Dy-90" style="edgeStyle=none;orthogonalLoop=1;jettySize=auto;html=1;exitX=1;exitY=0.5;exitDx=0;exitDy=0;entryX=0;entryY=0.5;entryDx=0;entryDy=0;endArrow=none;" edge="1" parent="1" source="lLafAOqv10n0gAe4L1Dy-92" target="lLafAOqv10n0gAe4L1Dy-126">
          <mxGeometry relative="1" as="geometry">
            <mxPoint x="570" y="754.005" as="targetPoint" />
          </mxGeometry>
        </mxCell>
        <mxCell id="lLafAOqv10n0gAe4L1Dy-91" style="edgeStyle=none;orthogonalLoop=1;jettySize=auto;html=1;exitX=1;exitY=0.5;exitDx=0;exitDy=0;entryX=0;entryY=0.5;entryDx=0;entryDy=0;endArrow=none;" edge="1" parent="1" source="lLafAOqv10n0gAe4L1Dy-92" target="lLafAOqv10n0gAe4L1Dy-127">
          <mxGeometry relative="1" as="geometry" />
        </mxCell>
        <mxCell id="lLafAOqv10n0gAe4L1Dy-92" value="SHIPMENT" style="rounded=0;whiteSpace=wrap;html=1;strokeColor=#000000;fillColor=#FFFFFF;" vertex="1" parent="1">
          <mxGeometry x="360" y="722.13" width="120" height="60" as="geometry" />
        </mxCell>
        <mxCell id="lLafAOqv10n0gAe4L1Dy-93" value="&lt;u&gt;Id&lt;/u&gt;" style="ellipse;whiteSpace=wrap;html=1;rounded=0;fillColor=#FFFFFF;" vertex="1" parent="1">
          <mxGeometry x="567" y="692.69" width="35" height="25.88" as="geometry" />
        </mxCell>
        <mxCell id="lLafAOqv10n0gAe4L1Dy-94" style="edgeStyle=orthogonalEdgeStyle;rounded=0;orthogonalLoop=1;jettySize=auto;html=1;exitX=0;exitY=0.5;exitDx=0;exitDy=0;entryX=0;entryY=0.5;entryDx=0;entryDy=0;endArrow=none;endFill=0;" edge="1" parent="1" source="lLafAOqv10n0gAe4L1Dy-85" target="lLafAOqv10n0gAe4L1Dy-85">
          <mxGeometry relative="1" as="geometry" />
        </mxCell>
        <mxCell id="lLafAOqv10n0gAe4L1Dy-95" value="Amount" style="ellipse;whiteSpace=wrap;html=1;strokeColor=#000000;fillColor=#FFFFFF;" vertex="1" parent="1">
          <mxGeometry x="-370" y="960.25" width="60" height="30" as="geometry" />
        </mxCell>
        <mxCell id="lLafAOqv10n0gAe4L1Dy-98" style="edgeStyle=none;orthogonalLoop=1;jettySize=auto;html=1;exitX=0.5;exitY=0;exitDx=0;exitDy=0;entryX=0.5;entryY=1;entryDx=0;entryDy=0;endArrow=none;" edge="1" parent="1" source="lLafAOqv10n0gAe4L1Dy-103" target="lLafAOqv10n0gAe4L1Dy-134">
          <mxGeometry relative="1" as="geometry" />
        </mxCell>
        <mxCell id="lLafAOqv10n0gAe4L1Dy-99" style="edgeStyle=none;orthogonalLoop=1;jettySize=auto;html=1;exitX=0.5;exitY=1;exitDx=0;exitDy=0;entryX=0.5;entryY=0;entryDx=0;entryDy=0;endArrow=none;" edge="1" parent="1" source="lLafAOqv10n0gAe4L1Dy-103" target="lLafAOqv10n0gAe4L1Dy-139">
          <mxGeometry relative="1" as="geometry" />
        </mxCell>
        <mxCell id="lLafAOqv10n0gAe4L1Dy-100" style="edgeStyle=none;orthogonalLoop=1;jettySize=auto;html=1;exitX=0.5;exitY=1;exitDx=0;exitDy=0;entryX=0.5;entryY=0;entryDx=0;entryDy=0;endArrow=none;" edge="1" parent="1" source="lLafAOqv10n0gAe4L1Dy-103" target="lLafAOqv10n0gAe4L1Dy-135">
          <mxGeometry relative="1" as="geometry" />
        </mxCell>
        <mxCell id="lLafAOqv10n0gAe4L1Dy-103" value="PAYMENT_RECORD" style="shape=ext;margin=3;double=1;whiteSpace=wrap;html=1;align=center;strokeColor=#000000;fillColor=#FFFFFF;" vertex="1" parent="1">
          <mxGeometry x="-452.75" y="430.5" width="140" height="45" as="geometry" />
        </mxCell>
        <mxCell id="lLafAOqv10n0gAe4L1Dy-104" value="Password" style="ellipse;whiteSpace=wrap;html=1;" vertex="1" parent="1">
          <mxGeometry x="-15" y="20" width="70" height="30" as="geometry" />
        </mxCell>
        <mxCell id="lLafAOqv10n0gAe4L1Dy-105" value="Full_name" style="ellipse;whiteSpace=wrap;html=1;" vertex="1" parent="1">
          <mxGeometry x="50" y="44.25" width="65" height="30" as="geometry" />
        </mxCell>
        <mxCell id="lLafAOqv10n0gAe4L1Dy-106" value="Address" style="ellipse;whiteSpace=wrap;html=1;" vertex="1" parent="1">
          <mxGeometry x="130" y="14.25" width="60" height="30" as="geometry" />
        </mxCell>
        <mxCell id="lLafAOqv10n0gAe4L1Dy-107" value="Phone_num" style="ellipse;whiteSpace=wrap;html=1;" vertex="1" parent="1">
          <mxGeometry x="145" y="67.75" width="80" height="40" as="geometry" />
        </mxCell>
        <mxCell id="lLafAOqv10n0gAe4L1Dy-108" value="" style="group;" vertex="1" connectable="0" parent="1">
          <mxGeometry y="530" width="20" height="10" as="geometry" />
        </mxCell>
        <mxCell id="lLafAOqv10n0gAe4L1Dy-109" value="" style="edgeStyle=orthogonalEdgeStyle;rounded=0;orthogonalLoop=1;jettySize=auto;html=1;endArrow=none;endFill=0;" edge="1" parent="lLafAOqv10n0gAe4L1Dy-108" source="lLafAOqv10n0gAe4L1Dy-62" target="lLafAOqv10n0gAe4L1Dy-72">
          <mxGeometry relative="1" as="geometry" />
        </mxCell>
        <mxCell id="lLafAOqv10n0gAe4L1Dy-110" value="" style="shape=requiredInterface;html=1;verticalLabelPosition=bottom;rotation=-90;" vertex="1" parent="lLafAOqv10n0gAe4L1Dy-108">
          <mxGeometry x="5" y="-5" width="10" height="20" as="geometry" />
        </mxCell>
        <mxCell id="lLafAOqv10n0gAe4L1Dy-111" value="" style="group;" vertex="1" connectable="0" parent="1">
          <mxGeometry y="214.25" width="20" height="10" as="geometry" />
        </mxCell>
        <mxCell id="lLafAOqv10n0gAe4L1Dy-112" value="" style="group;" vertex="1" connectable="0" parent="lLafAOqv10n0gAe4L1Dy-111">
          <mxGeometry width="20" height="10" as="geometry" />
        </mxCell>
        <mxCell id="lLafAOqv10n0gAe4L1Dy-113" value="" style="shape=requiredInterface;html=1;verticalLabelPosition=bottom;rotation=-90;" vertex="1" parent="lLafAOqv10n0gAe4L1Dy-112">
          <mxGeometry x="5" y="-5" width="10" height="20" as="geometry" />
        </mxCell>
        <mxCell id="lLafAOqv10n0gAe4L1Dy-114" style="edgeStyle=none;orthogonalLoop=1;jettySize=auto;html=1;exitX=1;exitY=0.5;exitDx=0;exitDy=0;exitPerimeter=0;entryX=0.5;entryY=0;entryDx=0;entryDy=0;endArrow=none;" edge="1" parent="1" source="lLafAOqv10n0gAe4L1Dy-113" target="lLafAOqv10n0gAe4L1Dy-63">
          <mxGeometry relative="1" as="geometry" />
        </mxCell>
        <mxCell id="lLafAOqv10n0gAe4L1Dy-115" value="Name" style="ellipse;whiteSpace=wrap;html=1;rounded=0;" vertex="1" parent="1">
          <mxGeometry x="920" y="184.25" width="50" height="27.75" as="geometry" />
        </mxCell>
        <mxCell id="lLafAOqv10n0gAe4L1Dy-116" value="Price" style="ellipse;whiteSpace=wrap;html=1;" vertex="1" parent="1">
          <mxGeometry x="1184.5" y="500.37" width="40" height="27.75" as="geometry" />
        </mxCell>
        <mxCell id="lLafAOqv10n0gAe4L1Dy-117" value="" style="group;" vertex="1" connectable="0" parent="1">
          <mxGeometry x="890" y="723.38" width="20" height="10" as="geometry" />
        </mxCell>
        <mxCell id="lLafAOqv10n0gAe4L1Dy-118" value="" style="endArrow=none;html=1;exitX=0.5;exitY=0;exitDx=0;exitDy=0;entryX=0.5;entryY=1;entryDx=0;entryDy=0;" edge="1" parent="lLafAOqv10n0gAe4L1Dy-117" source="lLafAOqv10n0gAe4L1Dy-31" target="lLafAOqv10n0gAe4L1Dy-28">
          <mxGeometry width="50" height="50" relative="1" as="geometry">
            <mxPoint x="-120" y="20" as="sourcePoint" />
            <mxPoint x="20" y="-20" as="targetPoint" />
          </mxGeometry>
        </mxCell>
        <mxCell id="lLafAOqv10n0gAe4L1Dy-119" value="" style="shape=requiredInterface;html=1;verticalLabelPosition=bottom;rotation=90;" vertex="1" parent="lLafAOqv10n0gAe4L1Dy-117">
          <mxGeometry x="5" y="-5" width="10" height="20" as="geometry" />
        </mxCell>
        <mxCell id="lLafAOqv10n0gAe4L1Dy-120" value="Product_unit_price" style="ellipse;whiteSpace=wrap;html=1;" vertex="1" parent="1">
          <mxGeometry x="260" y="411.19" width="110" height="36" as="geometry" />
        </mxCell>
        <mxCell id="lLafAOqv10n0gAe4L1Dy-121" value="Quantity" style="ellipse;whiteSpace=wrap;html=1;" vertex="1" parent="1">
          <mxGeometry x="340" y="371.5" width="60" height="25" as="geometry" />
        </mxCell>
        <mxCell id="lLafAOqv10n0gAe4L1Dy-122" value="Status" style="ellipse;whiteSpace=wrap;html=1;" vertex="1" parent="1">
          <mxGeometry x="460" y="401" width="50" height="25" as="geometry" />
        </mxCell>
        <mxCell id="lLafAOqv10n0gAe4L1Dy-123" value="" style="group;rotation=-180;" vertex="1" connectable="0" parent="1">
          <mxGeometry x="-230" y="780" width="10" height="20" as="geometry" />
        </mxCell>
        <mxCell id="lLafAOqv10n0gAe4L1Dy-124" value="" style="edgeStyle=orthogonalEdgeStyle;rounded=0;orthogonalLoop=1;jettySize=auto;html=1;endArrow=none;endFill=0;" edge="1" parent="lLafAOqv10n0gAe4L1Dy-123" source="lLafAOqv10n0gAe4L1Dy-75" target="lLafAOqv10n0gAe4L1Dy-87">
          <mxGeometry relative="1" as="geometry" />
        </mxCell>
        <mxCell id="lLafAOqv10n0gAe4L1Dy-125" value="" style="shape=requiredInterface;html=1;verticalLabelPosition=bottom;rotation=-360;" vertex="1" parent="lLafAOqv10n0gAe4L1Dy-123">
          <mxGeometry width="10" height="20" as="geometry" />
        </mxCell>
        <mxCell id="lLafAOqv10n0gAe4L1Dy-126" value="Date" style="ellipse;whiteSpace=wrap;html=1;rounded=0;fillColor=#FFFFFF;" vertex="1" parent="1">
          <mxGeometry x="565" y="739.01" width="45" height="26.25" as="geometry" />
        </mxCell>
        <mxCell id="lLafAOqv10n0gAe4L1Dy-127" value="&lt;u&gt;Tracking_num&lt;/u&gt;" style="ellipse;whiteSpace=wrap;html=1;rounded=0;fillColor=#FFFFFF;" vertex="1" parent="1">
          <mxGeometry x="530" y="782.13" width="90" height="42.5" as="geometry" />
        </mxCell>
        <mxCell id="lLafAOqv10n0gAe4L1Dy-134" value="&lt;font&gt;CONTAINS&lt;/font&gt;" style="shape=rhombus;double=1;perimeter=rhombusPerimeter;whiteSpace=wrap;html=1;align=center;strokeColor=#000000;fillColor=#FFFFFF;" vertex="1" parent="1">
          <mxGeometry x="-442.75" y="278" width="120" height="60" as="geometry" />
        </mxCell>
        <mxCell id="lLafAOqv10n0gAe4L1Dy-135" value="&lt;font&gt;CONTAINS&lt;/font&gt;" style="shape=rhombus;double=1;perimeter=rhombusPerimeter;whiteSpace=wrap;html=1;align=center;strokeColor=#000000;fillColor=#FFFFFF;" vertex="1" parent="1">
          <mxGeometry x="-362.75" y="590.25" width="120" height="60" as="geometry" />
        </mxCell>
        <mxCell id="lLafAOqv10n0gAe4L1Dy-136" value="" style="group;" vertex="1" connectable="0" parent="1">
          <mxGeometry x="-165.16840575370347" y="747.1540508978795" width="20.33681150740692" height="10.691898204240943" as="geometry" />
        </mxCell>
        <mxCell id="lLafAOqv10n0gAe4L1Dy-137" value="" style="edgeStyle=orthogonalEdgeStyle;rounded=0;orthogonalLoop=1;jettySize=auto;html=1;endArrow=none;endFill=0;" edge="1" parent="lLafAOqv10n0gAe4L1Dy-136" source="lLafAOqv10n0gAe4L1Dy-72" target="lLafAOqv10n0gAe4L1Dy-75">
          <mxGeometry relative="1" as="geometry" />
        </mxCell>
        <mxCell id="lLafAOqv10n0gAe4L1Dy-138" value="" style="shape=requiredInterface;html=1;verticalLabelPosition=bottom;rotation=92;" vertex="1" parent="lLafAOqv10n0gAe4L1Dy-136">
          <mxGeometry x="5.1684057537034604" y="-4.654050897879529" width="10" height="20" as="geometry" />
        </mxCell>
        <mxCell id="lLafAOqv10n0gAe4L1Dy-139" value="&lt;font&gt;CONTAINS&lt;/font&gt;" style="shape=rhombus;double=1;perimeter=rhombusPerimeter;whiteSpace=wrap;html=1;align=center;strokeColor=#000000;fillColor=#FFFFFF;" vertex="1" parent="1">
          <mxGeometry x="-522.75" y="590.25" width="120" height="60" as="geometry" />
        </mxCell>
        <mxCell id="lLafAOqv10n0gAe4L1Dy-141" style="edgeStyle=none;rounded=0;orthogonalLoop=1;jettySize=auto;html=1;exitX=0.5;exitY=1;exitDx=0;exitDy=0;entryX=0;entryY=0.5;entryDx=0;entryDy=0;endArrow=none;" edge="1" parent="1" source="lLafAOqv10n0gAe4L1Dy-142" target="lLafAOqv10n0gAe4L1Dy-103">
          <mxGeometry relative="1" as="geometry" />
        </mxCell>
        <mxCell id="lLafAOqv10n0gAe4L1Dy-142" value="&lt;u&gt;Datetime&lt;/u&gt;" style="ellipse;whiteSpace=wrap;html=1;strokeColor=#000000;fillColor=#FFFFFF;" vertex="1" parent="1">
          <mxGeometry x="-560" y="367.12" width="60" height="30.37" as="geometry" />
        </mxCell>
        <mxCell id="lLafAOqv10n0gAe4L1Dy-143" value="" style="group;" vertex="1" connectable="0" parent="1">
          <mxGeometry x="-392.75" y="216.25" width="20" height="10" as="geometry" />
        </mxCell>
        <mxCell id="lLafAOqv10n0gAe4L1Dy-144" style="edgeStyle=none;orthogonalLoop=1;jettySize=auto;html=1;exitX=0.5;exitY=0;exitDx=0;exitDy=0;entryX=0.5;entryY=1;entryDx=0;entryDy=0;endArrow=none;" edge="1" parent="lLafAOqv10n0gAe4L1Dy-143" source="lLafAOqv10n0gAe4L1Dy-134" target="lLafAOqv10n0gAe4L1Dy-15">
          <mxGeometry relative="1" as="geometry" />
        </mxCell>
        <mxCell id="lLafAOqv10n0gAe4L1Dy-145" value="" style="group;" vertex="1" connectable="0" parent="lLafAOqv10n0gAe4L1Dy-143">
          <mxGeometry width="20" height="10" as="geometry" />
        </mxCell>
        <mxCell id="lLafAOqv10n0gAe4L1Dy-146" value="" style="edgeStyle=orthogonalEdgeStyle;rounded=0;orthogonalLoop=1;jettySize=auto;html=1;endArrow=none;endFill=0;" edge="1" parent="lLafAOqv10n0gAe4L1Dy-145">
          <mxGeometry relative="1" as="geometry" />
        </mxCell>
        <mxCell id="lLafAOqv10n0gAe4L1Dy-147" value="" style="shape=requiredInterface;html=1;verticalLabelPosition=bottom;rotation=-90;" vertex="1" parent="lLafAOqv10n0gAe4L1Dy-145">
          <mxGeometry x="5" y="-5" width="10" height="20" as="geometry" />
        </mxCell>
        <mxCell id="lLafAOqv10n0gAe4L1Dy-155" value="" style="group;" vertex="1" connectable="0" parent="1">
          <mxGeometry x="-61.677819582470555" y="520.9166465115967" width="14.8356391649411" height="21.906706976806618" as="geometry" />
        </mxCell>
        <mxCell id="lLafAOqv10n0gAe4L1Dy-156" style="edgeStyle=none;orthogonalLoop=1;jettySize=auto;html=1;exitX=1;exitY=0.5;exitDx=0;exitDy=0;entryX=0;entryY=1;entryDx=0;entryDy=0;endArrow=none;" edge="1" parent="lLafAOqv10n0gAe4L1Dy-155" source="lLafAOqv10n0gAe4L1Dy-135" target="lLafAOqv10n0gAe4L1Dy-62">
          <mxGeometry relative="1" as="geometry" />
        </mxCell>
        <mxCell id="lLafAOqv10n0gAe4L1Dy-157" value="" style="group;rotation=75;" vertex="1" connectable="0" parent="lLafAOqv10n0gAe4L1Dy-155">
          <mxGeometry x="-2.5821804175294503" y="5.953353488403309" width="20" height="10" as="geometry" />
        </mxCell>
        <mxCell id="lLafAOqv10n0gAe4L1Dy-158" style="edgeStyle=none;orthogonalLoop=1;jettySize=auto;html=1;exitX=0.5;exitY=0;exitDx=0;exitDy=0;entryX=0.5;entryY=1;entryDx=0;entryDy=0;fontColor=#007FFF;endArrow=none;" edge="1" parent="lLafAOqv10n0gAe4L1Dy-157">
          <mxGeometry relative="1" as="geometry" />
        </mxCell>
        <mxCell id="lLafAOqv10n0gAe4L1Dy-159" value="" style="group;rotation=75;" vertex="1" connectable="0" parent="lLafAOqv10n0gAe4L1Dy-157">
          <mxGeometry width="20" height="10" as="geometry" />
        </mxCell>
        <mxCell id="lLafAOqv10n0gAe4L1Dy-160" value="" style="edgeStyle=orthogonalEdgeStyle;rounded=0;orthogonalLoop=1;jettySize=auto;html=1;endArrow=none;endFill=0;" edge="1" parent="lLafAOqv10n0gAe4L1Dy-159">
          <mxGeometry relative="1" as="geometry" />
        </mxCell>
        <mxCell id="lLafAOqv10n0gAe4L1Dy-161" value="" style="shape=requiredInterface;html=1;verticalLabelPosition=bottom;rotation=-15;" vertex="1" parent="lLafAOqv10n0gAe4L1Dy-159">
          <mxGeometry x="5" y="-5" width="10" height="20" as="geometry" />
        </mxCell>
        <mxCell id="lLafAOqv10n0gAe4L1Dy-162" value="" style="group;" vertex="1" connectable="0" parent="1">
          <mxGeometry x="-227.85866453718626" y="746.8929730755126" width="16.237329074372468" height="75.6070269244874" as="geometry" />
        </mxCell>
        <mxCell id="lLafAOqv10n0gAe4L1Dy-164" value="" style="group;rotation=110;" vertex="1" connectable="0" parent="lLafAOqv10n0gAe4L1Dy-162">
          <mxGeometry x="-1.881335462813766" y="6.1070269244874" width="20" height="10" as="geometry" />
        </mxCell>
        <mxCell id="lLafAOqv10n0gAe4L1Dy-165" style="edgeStyle=none;orthogonalLoop=1;jettySize=auto;html=1;exitX=0.5;exitY=0;exitDx=0;exitDy=0;entryX=0.5;entryY=1;entryDx=0;entryDy=0;fontColor=#007FFF;endArrow=none;" edge="1" parent="lLafAOqv10n0gAe4L1Dy-164">
          <mxGeometry relative="1" as="geometry" />
        </mxCell>
        <mxCell id="lLafAOqv10n0gAe4L1Dy-166" value="" style="group;rotation=110;" vertex="1" connectable="0" parent="lLafAOqv10n0gAe4L1Dy-164">
          <mxGeometry width="20" height="10" as="geometry" />
        </mxCell>
        <mxCell id="lLafAOqv10n0gAe4L1Dy-167" value="" style="edgeStyle=orthogonalEdgeStyle;rounded=0;orthogonalLoop=1;jettySize=auto;html=1;endArrow=none;endFill=0;" edge="1" parent="lLafAOqv10n0gAe4L1Dy-166">
          <mxGeometry relative="1" as="geometry" />
        </mxCell>
        <mxCell id="lLafAOqv10n0gAe4L1Dy-82" value="PAYMENT" style="rounded=0;whiteSpace=wrap;html=1;strokeColor=#000000;fillColor=#FFFFFF;" vertex="1" parent="lLafAOqv10n0gAe4L1Dy-162">
          <mxGeometry x="-397.14133546281374" y="15.6070269244874" width="120" height="60" as="geometry" />
        </mxCell>
        <mxCell id="lLafAOqv10n0gAe4L1Dy-169" style="edgeStyle=orthogonalEdgeStyle;rounded=0;orthogonalLoop=1;jettySize=auto;html=1;exitX=0.5;exitY=1;exitDx=0;exitDy=0;endArrow=none;endFill=0;" edge="1" parent="1" source="lLafAOqv10n0gAe4L1Dy-177" target="lLafAOqv10n0gAe4L1Dy-180">
          <mxGeometry relative="1" as="geometry" />
        </mxCell>
        <mxCell id="lLafAOqv10n0gAe4L1Dy-170" style="edgeStyle=none;rounded=0;orthogonalLoop=1;jettySize=auto;html=1;exitX=0.5;exitY=0;exitDx=0;exitDy=0;entryX=0.5;entryY=1;entryDx=0;entryDy=0;endArrow=none;" edge="1" parent="1" source="lLafAOqv10n0gAe4L1Dy-177" target="lLafAOqv10n0gAe4L1Dy-120">
          <mxGeometry relative="1" as="geometry" />
        </mxCell>
        <mxCell id="lLafAOqv10n0gAe4L1Dy-171" style="edgeStyle=none;rounded=0;orthogonalLoop=1;jettySize=auto;html=1;exitX=0.5;exitY=0;exitDx=0;exitDy=0;entryX=0.5;entryY=1;entryDx=0;entryDy=0;endArrow=none;" edge="1" parent="1" source="lLafAOqv10n0gAe4L1Dy-177" target="lLafAOqv10n0gAe4L1Dy-121">
          <mxGeometry relative="1" as="geometry" />
        </mxCell>
        <mxCell id="lLafAOqv10n0gAe4L1Dy-172" style="edgeStyle=none;rounded=0;orthogonalLoop=1;jettySize=auto;html=1;exitX=0.5;exitY=0;exitDx=0;exitDy=0;entryX=0.5;entryY=1;entryDx=0;entryDy=0;endArrow=none;" edge="1" parent="1" source="lLafAOqv10n0gAe4L1Dy-177" target="lLafAOqv10n0gAe4L1Dy-67">
          <mxGeometry relative="1" as="geometry" />
        </mxCell>
        <mxCell id="lLafAOqv10n0gAe4L1Dy-173" style="edgeStyle=none;rounded=0;orthogonalLoop=1;jettySize=auto;html=1;exitX=0.5;exitY=0;exitDx=0;exitDy=0;entryX=0.5;entryY=1;entryDx=0;entryDy=0;endArrow=none;" edge="1" parent="1" source="lLafAOqv10n0gAe4L1Dy-177" target="lLafAOqv10n0gAe4L1Dy-122">
          <mxGeometry relative="1" as="geometry" />
        </mxCell>
        <mxCell id="lLafAOqv10n0gAe4L1Dy-174" style="edgeStyle=none;rounded=0;orthogonalLoop=1;jettySize=auto;html=1;exitX=0.5;exitY=0;exitDx=0;exitDy=0;entryX=0.5;entryY=1;entryDx=0;entryDy=0;endArrow=none;" edge="1" parent="1" source="lLafAOqv10n0gAe4L1Dy-177" target="lLafAOqv10n0gAe4L1Dy-69">
          <mxGeometry relative="1" as="geometry" />
        </mxCell>
        <mxCell id="lLafAOqv10n0gAe4L1Dy-175" style="edgeStyle=none;orthogonalLoop=1;jettySize=auto;html=1;exitX=1;exitY=1;exitDx=0;exitDy=0;entryX=0;entryY=0;entryDx=0;entryDy=0;endArrow=none;" edge="1" parent="1" source="lLafAOqv10n0gAe4L1Dy-177" target="lLafAOqv10n0gAe4L1Dy-200">
          <mxGeometry relative="1" as="geometry" />
        </mxCell>
        <mxCell id="lLafAOqv10n0gAe4L1Dy-176" style="edgeStyle=none;orthogonalLoop=1;jettySize=auto;html=1;exitX=0;exitY=1;exitDx=0;exitDy=0;entryX=1;entryY=0;entryDx=0;entryDy=0;endArrow=none;" edge="1" parent="1" source="lLafAOqv10n0gAe4L1Dy-177" target="lLafAOqv10n0gAe4L1Dy-201">
          <mxGeometry relative="1" as="geometry" />
        </mxCell>
        <mxCell id="lLafAOqv10n0gAe4L1Dy-177" value="ORDER_ITEM" style="shape=ext;margin=3;double=1;whiteSpace=wrap;html=1;align=center;strokeColor=#000000;fillColor=#FFFFFF;" vertex="1" parent="1">
          <mxGeometry x="350" y="473.9999999999999" width="140" height="45" as="geometry" />
        </mxCell>
        <mxCell id="lLafAOqv10n0gAe4L1Dy-178" style="edgeStyle=none;rounded=0;orthogonalLoop=1;jettySize=auto;html=1;exitX=1;exitY=0.5;exitDx=0;exitDy=0;entryX=0;entryY=0.5;entryDx=0;entryDy=0;endArrow=none;" edge="1" parent="1" source="lLafAOqv10n0gAe4L1Dy-179" target="lLafAOqv10n0gAe4L1Dy-177">
          <mxGeometry relative="1" as="geometry" />
        </mxCell>
        <mxCell id="lLafAOqv10n0gAe4L1Dy-179" value="&lt;font&gt;CONTAINS&lt;/font&gt;" style="shape=rhombus;double=1;perimeter=rhombusPerimeter;whiteSpace=wrap;html=1;align=center;strokeColor=#000000;fillColor=#FFFFFF;" vertex="1" parent="1">
          <mxGeometry x="130" y="466.87" width="120" height="60" as="geometry" />
        </mxCell>
        <mxCell id="lLafAOqv10n0gAe4L1Dy-180" value="Sent" style="rhombus;whiteSpace=wrap;html=1;rounded=0;" vertex="1" parent="1">
          <mxGeometry x="380" y="603.38" width="80" height="80" as="geometry" />
        </mxCell>
        <mxCell id="lLafAOqv10n0gAe4L1Dy-181" value="" style="group;" vertex="1" connectable="0" parent="1">
          <mxGeometry x="-155.16840575370347" y="757.1540508978795" width="20.33681150740692" height="10.691898204240943" as="geometry" />
        </mxCell>
        <mxCell id="lLafAOqv10n0gAe4L1Dy-182" value="" style="edgeStyle=orthogonalEdgeStyle;rounded=0;orthogonalLoop=1;jettySize=auto;html=1;endArrow=none;endFill=0;" edge="1" parent="lLafAOqv10n0gAe4L1Dy-181">
          <mxGeometry relative="1" as="geometry" />
        </mxCell>
        <mxCell id="lLafAOqv10n0gAe4L1Dy-183" value="" style="shape=requiredInterface;html=1;verticalLabelPosition=bottom;rotation=-178;" vertex="1" parent="1">
          <mxGeometry x="70" y="487.5" width="10" height="20" as="geometry" />
        </mxCell>
        <mxCell id="lLafAOqv10n0gAe4L1Dy-184" style="edgeStyle=none;orthogonalLoop=1;jettySize=auto;html=1;exitX=0.5;exitY=1;exitDx=0;exitDy=0;entryX=0.5;entryY=0;entryDx=0;entryDy=0;endArrow=none;" edge="1" parent="1" source="lLafAOqv10n0gAe4L1Dy-185" target="lLafAOqv10n0gAe4L1Dy-15">
          <mxGeometry relative="1" as="geometry" />
        </mxCell>
        <mxCell id="lLafAOqv10n0gAe4L1Dy-185" value="Bank" style="ellipse;whiteSpace=wrap;html=1;fontColor=#007FFF;" vertex="1" parent="1">
          <mxGeometry x="-480" y="44.25" width="60" height="30" as="geometry" />
        </mxCell>
        <mxCell id="lLafAOqv10n0gAe4L1Dy-186" value="Date_valid_from" style="ellipse;whiteSpace=wrap;html=1;fontColor=#007FFF;" vertex="1" parent="1">
          <mxGeometry x="-342.86" y="89.25" width="97.86" height="45" as="geometry" />
        </mxCell>
        <mxCell id="lLafAOqv10n0gAe4L1Dy-187" style="edgeStyle=none;orthogonalLoop=1;jettySize=auto;html=1;exitX=0.5;exitY=1;exitDx=0;exitDy=0;entryX=0.5;entryY=0;entryDx=0;entryDy=0;endArrow=none;" edge="1" parent="1" source="lLafAOqv10n0gAe4L1Dy-188" target="lLafAOqv10n0gAe4L1Dy-15">
          <mxGeometry relative="1" as="geometry" />
        </mxCell>
        <mxCell id="lLafAOqv10n0gAe4L1Dy-188" value="Date_valid_to" style="ellipse;whiteSpace=wrap;html=1;fontColor=#007FFF;" vertex="1" parent="1">
          <mxGeometry x="-420" y="64.25" width="83.93" height="40" as="geometry" />
        </mxCell>
        <mxCell id="lLafAOqv10n0gAe4L1Dy-189" value="" style="group;" vertex="1" connectable="0" parent="1">
          <mxGeometry x="-59.68000000000001" y="174.25" width="10" height="20" as="geometry" />
        </mxCell>
        <mxCell id="lLafAOqv10n0gAe4L1Dy-190" style="edgeStyle=none;orthogonalLoop=1;jettySize=auto;html=1;exitX=1;exitY=0.5;exitDx=0;exitDy=0;entryX=0;entryY=0.5;entryDx=0;entryDy=0;endArrow=none;" edge="1" parent="lLafAOqv10n0gAe4L1Dy-189" source="lLafAOqv10n0gAe4L1Dy-10" target="lLafAOqv10n0gAe4L1Dy-8">
          <mxGeometry relative="1" as="geometry" />
        </mxCell>
        <mxCell id="lLafAOqv10n0gAe4L1Dy-191" value="" style="shape=requiredInterface;html=1;verticalLabelPosition=bottom;rotation=0;" vertex="1" parent="lLafAOqv10n0gAe4L1Dy-189">
          <mxGeometry width="10" height="20" as="geometry" />
        </mxCell>
        <mxCell id="lLafAOqv10n0gAe4L1Dy-192" style="edgeStyle=none;orthogonalLoop=1;jettySize=auto;html=1;exitX=1;exitY=0.5;exitDx=0;exitDy=0;entryX=0;entryY=0.5;entryDx=0;entryDy=0;endArrow=none;" edge="1" parent="1" source="lLafAOqv10n0gAe4L1Dy-193" target="lLafAOqv10n0gAe4L1Dy-62">
          <mxGeometry relative="1" as="geometry" />
        </mxCell>
        <mxCell id="lLafAOqv10n0gAe4L1Dy-193" value="Date" style="ellipse;whiteSpace=wrap;html=1;" vertex="1" parent="1">
          <mxGeometry x="-172.5" y="477.75" width="45" height="17.5" as="geometry" />
        </mxCell>
        <mxCell id="lLafAOqv10n0gAe4L1Dy-194" value="&lt;u&gt;Id&lt;/u&gt;" style="ellipse;whiteSpace=wrap;html=1;" vertex="1" parent="1">
          <mxGeometry x="-122.5" y="457.75" width="35" height="20.5" as="geometry" />
        </mxCell>
        <mxCell id="lLafAOqv10n0gAe4L1Dy-195" value="" style="endArrow=classic;html=1;exitX=0.5;exitY=1;exitDx=0;exitDy=0;entryX=0.5;entryY=0;entryDx=0;entryDy=0;strokeColor=#007FFF;" edge="1" parent="1" source="lLafAOqv10n0gAe4L1Dy-180" target="lLafAOqv10n0gAe4L1Dy-92">
          <mxGeometry width="50" height="50" relative="1" as="geometry">
            <mxPoint x="430" y="665.63" as="sourcePoint" />
            <mxPoint x="480" y="615.63" as="targetPoint" />
          </mxGeometry>
        </mxCell>
        <mxCell id="lLafAOqv10n0gAe4L1Dy-197" value="CUSTOMER.Id" style="ellipse;whiteSpace=wrap;html=1;fillColor=#FFFF00;" vertex="1" parent="1">
          <mxGeometry x="-600" y="169.62" width="115" height="34.25" as="geometry" />
        </mxCell>
        <mxCell id="lLafAOqv10n0gAe4L1Dy-198" value="INVOICE.Number" style="ellipse;whiteSpace=wrap;html=1;rounded=0;fillColor=#FFFF00;" vertex="1" parent="1">
          <mxGeometry x="-506.13" y="981.75" width="102.25" height="40" as="geometry" />
        </mxCell>
        <mxCell id="lLafAOqv10n0gAe4L1Dy-199" value="CUSTOMER.Id" style="ellipse;whiteSpace=wrap;html=1;fillColor=#FFFF00;" vertex="1" parent="1">
          <mxGeometry x="-145" y="401" width="115" height="34.25" as="geometry" />
        </mxCell>
        <mxCell id="lLafAOqv10n0gAe4L1Dy-200" value="SHIPMENT.Id" style="ellipse;whiteSpace=wrap;html=1;rounded=0;fillColor=#FFFF00;" vertex="1" parent="1">
          <mxGeometry x="500" y="537.75" width="90" height="40.25" as="geometry" />
        </mxCell>
        <mxCell id="lLafAOqv10n0gAe4L1Dy-201" value="ORDER.Id" style="ellipse;whiteSpace=wrap;html=1;rounded=0;fillColor=#FFFF00;" vertex="1" parent="1">
          <mxGeometry x="270" y="537.5" width="70" height="40.25" as="geometry" />
        </mxCell>
        <mxCell id="lLafAOqv10n0gAe4L1Dy-202" value="&lt;font color=&quot;#007fff&quot;&gt;&amp;gt;=1&lt;/font&gt;" style="text;html=1;align=center;verticalAlign=middle;resizable=0;points=[];autosize=1;strokeColor=none;" vertex="1" parent="1">
          <mxGeometry x="90" y="470" width="40" height="20" as="geometry" />
        </mxCell>
        <mxCell id="lLafAOqv10n0gAe4L1Dy-203" value="PRODUCT_TYPE.Id" style="ellipse;whiteSpace=wrap;html=1;fillColor=#FFFF00;" vertex="1" parent="1">
          <mxGeometry x="1048" y="595.07" width="136.5" height="43.13" as="geometry" />
        </mxCell>
        <mxCell id="lLafAOqv10n0gAe4L1Dy-212" value="" style="edgeStyle=none;orthogonalLoop=1;jettySize=auto;html=1;exitX=0.5;exitY=1;exitDx=0;exitDy=0;endArrow=none;" edge="1" parent="1" source="lLafAOqv10n0gAe4L1Dy-139" target="lLafAOqv10n0gAe4L1Dy-82">
          <mxGeometry relative="1" as="geometry">
            <mxPoint x="-690.6086645371863" y="1397.1429730755126" as="sourcePoint" />
            <mxPoint x="-807.8586645371865" y="1678.49294866145" as="targetPoint" />
          </mxGeometry>
        </mxCell>
        <mxCell id="lLafAOqv10n0gAe4L1Dy-168" value="" style="shape=requiredInterface;html=1;verticalLabelPosition=bottom;rotation=120;" vertex="1" parent="1">
          <mxGeometry x="-547.5" y="747.15" width="10" height="20" as="geometry" />
        </mxCell>
      </root>
    </mxGraphModel>
  </diagram>
</mxfile>
